<svg id="Layer_1" data-name="Layer 1" xmlns="http://www.w3.org/2000/svg" viewBox="0 0 602.36 556.93"><defs><style>.cls-1{fill:#ff8000;}.cls-2{fill:#fff;}</style></defs><rect class="cls-1" x="1.07" width="601.64" height="558.36"/><path class="cls-2" d="M413.31,170.84h0c-.71-1.85-10.54-20-28.78-42.77h0a3.69,3.69,0,0,1-.84-1.94h0a360.86,360.86,0,0,0-5.5-39.49,6.43,6.43,0,0,0-5.57-5h0l-18.95-2.29h0a4.19,4.19,0,0,0-.5,0,4,4,0,0,0-4,4v6.59a.24.24,0,0,1-.24.24.23.23,0,0,1-.16-.06h0a267.28,267.28,0,0,0-38.29-28.89h0a16.81,16.81,0,0,0-9.39-2.85h0a16.81,16.81,0,0,0-9.39,2.85h0c-65.43,40.4-101.45,106.07-102.84,109.68h0a6.38,6.38,0,0,0-.62,2.76,6.49,6.49,0,0,0,4.89,6.29L212,183.52a6.44,6.44,0,0,1,4.71,5.5c.15,3.33,3.72,77.66,8.19,97h0a6.5,6.5,0,0,0,6.28,4.82h.14c11-.27,21.07-.46,32-.6h.07l.83,0h0a2.12,2.12,0,0,0,2.11-2.11V288h0c-.45-6.49-1.4-21.33-2.17-36.95,0-.39-.05-.89-.07-1.28h0a4,4,0,0,0-1.91-3.21,20.36,20.36,0,0,1-9.89-16.42c-1-26.07-1.49-56.2-.07-79.77h0a3.79,3.79,0,0,1,7.58.16v.29h0c-.93,15.72-1,34.3-.68,52.63h0a4.49,4.49,0,0,0,9-.16h0c-.34-18.45-.24-37.15.71-52.92a3.79,3.79,0,0,1,7.58.16,2.71,2.71,0,0,1,0,.29c-.92,15.64-1,34.1-.68,52.34h0a4.49,4.49,0,0,0,9-.14h0c-.34-18.37-.24-37,.71-52.66a3.79,3.79,0,0,1,7.58.16,2.71,2.71,0,0,1,0,.29c-1.35,22.92-.91,51.93,0,77.38,0,0,0,.22,0,.23s0,.26,0,.39h0v.25a20.34,20.34,0,0,1-8.82,16.78,3.91,3.91,0,0,0-1.68,3s-.46,3.9,1.26,22.84c.81,8.27,1.42,14,1.71,16.59h0a2,2,0,0,0,2,1.74h1.75l11.27,0h1.46c4.92,0,9.6,0,14.12,0l10.69.1h0a2,2,0,0,0,2-1.76h0c2.48-22.7,3.06-35.44,3.06-35.44a2.23,2.23,0,0,0-2-2.18l-13-1.8h0a4.42,4.42,0,0,1-3.72-3.18,6.07,6.07,0,0,1-.16-2c5.27-75.64,30.2-101.13,30.2-101.13a7.45,7.45,0,0,1,1.21-1,4,4,0,0,1,6.07,1.78,7.68,7.68,0,0,1,.32,1.81c2.15,23.78,1.1,64.24-.23,95.8-1.13,26.79-2.5,47.81-2.5,47.81h0v.05a1.55,1.55,0,0,0,1.56,1.55h0c7.08.12,14.05.27,21.44.45H371a6.51,6.51,0,0,0,6.28-4.82h0c4.47-19.29,8-93.62,8.19-97a6.43,6.43,0,0,1,4.71-5.5L409,179.89a6.49,6.49,0,0,0,4.89-6.29A6.38,6.38,0,0,0,413.31,170.84Z"/><path class="cls-2" d="M156,334.21H140.2c-5.11,0-5.11,0-6.18,6s-1.06,6.18,3.63,6.18H147l-5.33,30.48c-1.28,6.82-4.27,11.51-13.43,14.28-2.35.64-3,1.5-3,2.56,0,1.28.43,2.35,1.49,4.91,1.5,3.62,2.35,4.26,3.63,4.26a24,24,0,0,0,4.47-.85c13-4.27,18.34-14.29,20.47-26.22l6-34.32c1.06-7.25,1.06-7.25-5.33-7.25"/><path class="cls-2" d="M209.48,334.21c-6.39,0-6.39,0-7.25,5.33l-4.69,27.71c-1.27,8.1-3.41,12.79-11.29,12.79-7.68,0-10.45-4.69-9.17-11.94l4.48-26.43c1.28-7.46,1.06-7.46-5.54-7.46-6.4,0-6.61,0-7.47,5.12L163.86,367c-2.77,15.77,7,25.58,20.89,25.58,15.57,0,23.45-7,26-23.66l4.69-27.5c1.07-7.25.64-7.25-6-7.25"/><path class="cls-2" d="M238.69,379.61c5.11-.21,7.88-2.55,7.88-4.9,0-3-3.62-4-8.52-5.54-9.6-3-18.34-6.4-18.34-16.63,0-12.15,10-18.76,22.6-18.76,5.33,0,11.3.22,15.13.64,3.41.43,4.27,1.5,3.2,6.82s-2.34,5.76-5.33,5.55c-3.62-.22-8.31-.64-13.85-.64-6.4,0-8.32,2.34-8.32,4.47,0,2.77,2.56,4.27,8.53,6,11.08,3.2,18.33,7.68,18.33,17.27,0,11.3-8.31,17.9-21.74,18.33a105.66,105.66,0,0,1-19.19-1.07c-4.26-.63-4.47-.63-3.41-6.82,1.07-5.54,1.07-6,5.12-5.54a112.9,112.9,0,0,0,17.91.85"/><path class="cls-2" d="M308.39,334.21h-36c-5.12,0-5.12,0-6.19,6.18s-.85,6.18,3.63,6.18h11.72l-6.61,38.16c-1.28,7.46-1.06,7.46,5.55,7.46,6.18,0,6.39,0,7.24-5.33l6.82-40.29h11.3c5.12,0,5.12,0,6.18-6.18s1.07-6.18-3.62-6.18"/><path class="cls-2" d="M371.91,346.36c5.12,0,5.12,0,6.18-6.18s1.07-6.18-3.62-6.18H348.68c-9.17,0-8.95,0-10.45,9.16l-6.61,38.59c-1.7,10-1.49,10,7.68,10h25.15c5.33,0,5.12,0,6.18-6,1.07-6.19,1.07-6.19-3.62-6.19H345.27l1.7-11.08h18.12c4.9,0,4.9,0,5.76-5.76.85-6,.85-6-5.76-6h-16l1.71-10.45Z"/><path class="cls-2" d="M399.2,366.82l8.31-18.33c.64-1.49.64-1.49,1.71-1.49s1.06,0,1.28,1.71l2.55,18.11Zm22.59-25.58c-1.28-7.24-1.28-7.24-11.51-7.24-9.59,0-9.38,0-12.36,6l-21.53,45c-3.2,6.4-2.56,7,5.33,7,6.18,0,6.18,0,8.74-5.76l3.41-7.67h20.89l1.06,7.67c.86,5.76,1.07,5.76,7.25,5.76,7,0,7.68-.43,6.4-7.46Z"/><path class="cls-2" d="M472.74,334.21H436.5c-5.11,0-5.11,0-6.18,6.18s-.85,6.18,3.62,6.18h11.73l-6.61,38.16c-1.28,7.46-1.07,7.46,5.54,7.46,6.18,0,6.4,0,7.25-5.33l6.82-40.29H470c5.11,0,5.11,0,6.18-6.18,1.28-6.18,1.28-6.18-3.41-6.18"/><g id="TakeawayCOM_Full_Colour" data-name="TakeawayCOM Full Colour"><g id="TakeawayCOM-2"><path class="cls-2" d="M103.23,430.31v-7.79a1.87,1.87,0,0,0-1.8-1.75H59.16a1.86,1.86,0,0,0-1.81,1.81v7.67a1.88,1.88,0,0,0,1.78,1.82H73a1,1,0,0,1,.92.93v43.9a1.85,1.85,0,0,0,1.78,1.86h9.23A1.86,1.86,0,0,0,86.66,477v-44.2a1,1,0,0,1,.88-.71h13.89a1.87,1.87,0,0,0,1.78-1.76"/><path class="cls-2" d="M126.77,440.92a12.89,12.89,0,0,0-5.57-4,25.06,25.06,0,0,0-8.88-1.35,28.48,28.48,0,0,0-9.51,1.6,22.53,22.53,0,0,0-6.68,3.65,1.87,1.87,0,0,0,.07,2.58h0l3.83,3.93h0a1.88,1.88,0,0,0,2.65,0h0a15,15,0,0,1,3.1-2.13,12.23,12.23,0,0,1,5.54-1.27,8.52,8.52,0,0,1,5.53,1.93c1.44,1.2,2.22,3.34,2.33,6.78a1,1,0,0,1-.93.79h0c-1.43,0-3,0-4.59.09a52,52,0,0,0-6,.49,36.65,36.65,0,0,0-5.77,1.26,17.44,17.44,0,0,0-5,2.42,11.54,11.54,0,0,0-3.44,3.94,12.18,12.18,0,0,0-1.27,5.81,11.5,11.5,0,0,0,1.15,5.32,11.32,11.32,0,0,0,3.11,3.86A13.67,13.67,0,0,0,101,479a19,19,0,0,0,12.49-.62,11.47,11.47,0,0,0,4.52-3.33h.13a.67.67,0,0,1,.76.13.66.66,0,0,1,.21.45v1.44a1.86,1.86,0,0,0,1.77,1.8h7.75a1.84,1.84,0,0,0,1.77-1.82V458.63a67.54,67.54,0,0,0-.82-11.18,15.26,15.26,0,0,0-2.9-6.38m-7.52,22.86a6.59,6.59,0,0,1-.78,3.28,6.8,6.8,0,0,1-2.13,2.3,10.5,10.5,0,0,1-3,1.38,11.77,11.77,0,0,1-3.48.5,7.92,7.92,0,0,1-4-1.06,3.51,3.51,0,0,1-1.87-3.28,3.92,3.92,0,0,1,1.35-3.19,8.89,8.89,0,0,1,3.27-1.73,18.29,18.29,0,0,1,4-.69c1.41-.08,2.57-.12,3.47-.12h2.13a1,1,0,0,1,.89.92Z"/><path class="cls-2" d="M249.12,440.92a12.89,12.89,0,0,0-5.57-4,25.11,25.11,0,0,0-8.89-1.35,29,29,0,0,0-9.51,1.6,22.3,22.3,0,0,0-6.66,3.65,1.86,1.86,0,0,0,0,2.58h0l3.83,3.93h0a1.89,1.89,0,0,0,2.66,0,15,15,0,0,1,3.11-2.13,12.23,12.23,0,0,1,5.54-1.27,8.47,8.47,0,0,1,5.52,1.93c1.45,1.2,2.22,3.34,2.33,6.78a.94.94,0,0,1-.93.79h0c-1.43,0-3,0-4.59.09a52,52,0,0,0-6,.49,36.77,36.77,0,0,0-5.78,1.26,17.25,17.25,0,0,0-4.95,2.42,11.44,11.44,0,0,0-3.44,3.94,12.19,12.19,0,0,0-1.28,5.81,11.76,11.76,0,0,0,1.15,5.32,11.32,11.32,0,0,0,3.11,3.86,13.67,13.67,0,0,0,4.55,2.34,19.11,19.11,0,0,0,12.53-.62,11.4,11.4,0,0,0,4.52-3.33h.12a.7.7,0,0,1,.78.13.68.68,0,0,1,.19.45v1.44a1.87,1.87,0,0,0,1.78,1.8h7.74a1.86,1.86,0,0,0,1.78-1.82V458.63a69.76,69.76,0,0,0-.81-11.18,15.17,15.17,0,0,0-2.92-6.38m-7.56,22.86a6.59,6.59,0,0,1-.78,3.28,6.67,6.67,0,0,1-2.12,2.3,10.69,10.69,0,0,1-3,1.38,11.72,11.72,0,0,1-3.48.5,7.79,7.79,0,0,1-3.94-1.06,3.5,3.5,0,0,1-1.88-3.28,3.92,3.92,0,0,1,1.35-3.19,8.93,8.93,0,0,1,3.28-1.73,18.29,18.29,0,0,1,4-.69q2.13-.12,3.48-.12h2.12a1,1,0,0,1,.89.92Z"/><path class="cls-2" d="M354.7,440.92a12.89,12.89,0,0,0-5.57-4,24.89,24.89,0,0,0-8.89-1.35,29,29,0,0,0-9.5,1.6,22.65,22.65,0,0,0-6.68,3.65,1.87,1.87,0,0,0,.07,2.58h0l3.83,3.93h0a1.89,1.89,0,0,0,2.66,0,15,15,0,0,1,3.11-2.13,12.1,12.1,0,0,1,5.54-1.27,8.54,8.54,0,0,1,5.52,1.93c1.44,1.2,2.21,3.34,2.33,6.78a1,1,0,0,1-.94.79h0c-1.43,0-3,0-4.58.09a51.84,51.84,0,0,0-6,.49,36.77,36.77,0,0,0-5.78,1.26,17.31,17.31,0,0,0-5,2.42,11.32,11.32,0,0,0-3.43,3.94,12.07,12.07,0,0,0-1.28,5.81,11.63,11.63,0,0,0,1.15,5.32,11,11,0,0,0,3.12,3.86A13.48,13.48,0,0,0,329,479a19.14,19.14,0,0,0,12.54-.62A11.31,11.31,0,0,0,346,475h.12a.67.67,0,0,1,.76.13.65.65,0,0,1,.2.45v1.44a1.88,1.88,0,0,0,1.78,1.8h7.74a1.87,1.87,0,0,0,1.79-1.82V458.63a68.64,68.64,0,0,0-.82-11.18,15.4,15.4,0,0,0-2.91-6.38m-7.57,22.86a6.69,6.69,0,0,1-.77,3.28,6.8,6.8,0,0,1-2.13,2.3,10.56,10.56,0,0,1-3,1.38,11.72,11.72,0,0,1-3.48.5,7.75,7.75,0,0,1-3.93-1.06,3.48,3.48,0,0,1-1.88-3.28,3.92,3.92,0,0,1,1.35-3.19,8.89,8.89,0,0,1,3.27-1.73,18.29,18.29,0,0,1,4-.69c1.39-.08,2.56-.12,3.47-.12h2.13a.92.92,0,0,1,.87.92Z"/><path class="cls-2" d="M208.89,441.29A16.25,16.25,0,0,0,203,437a20,20,0,0,0-7.74-1.47,25.53,25.53,0,0,0-8.65,1.47,21.23,21.23,0,0,0-7,4.25,19.91,19.91,0,0,0-4.71,6.6,28.62,28.62,0,0,0,0,19.57,19.67,19.67,0,0,0,4.71,6.59,20.4,20.4,0,0,0,7,4.25,24.83,24.83,0,0,0,8.65,1.48,22.27,22.27,0,0,0,9.34-2,19.43,19.43,0,0,0,6.12-4.26,1.87,1.87,0,0,0,0-2.52l-5.57-4.09h0l-.41-.29a1.86,1.86,0,0,0-2.24.3,14.78,14.78,0,0,1-2.65,2.28,9.4,9.4,0,0,1-5.12,1.34,9.14,9.14,0,0,1-6.07-2.13,11.11,11.11,0,0,1-3.14-7.08.9.9,0,0,1,.76-.9h25.93a1.88,1.88,0,0,0,1.77-1.86v-2a26.47,26.47,0,0,0-1.31-8.61,19.31,19.31,0,0,0-3.74-6.6m-8.2,10.64H186.45a.93.93,0,0,1-.92-.88,7.86,7.86,0,0,1,.6-2,7.14,7.14,0,0,1,1.72-2.36,8.84,8.84,0,0,1,2.66-1.69,9.08,9.08,0,0,1,3.6-.65,7.27,7.27,0,0,1,5.48,2.21,7.06,7.06,0,0,1,2,4.44,1,1,0,0,1-.94.88"/><path class="cls-2" d="M161.75,458.26h0l-.27-.38a1.82,1.82,0,0,1,0-1.91l14.33-17.87a.94.94,0,0,0-.09-1.28.9.9,0,0,0-.61-.22H163.83a3.76,3.76,0,0,0-3,1.47h0l-.62.79L149.2,453l-.15.17h0l-.08.08h-.08a.7.7,0,0,1-.77-.12.8.8,0,0,1-.18-.34V418.59a1.86,1.86,0,0,0-1.73-1.76h-8.82a1.87,1.87,0,0,0-1.73,1.79V477a1.87,1.87,0,0,0,1.77,1.78h8.74a1.85,1.85,0,0,0,1.77-1.75V460.49a.7.7,0,0,1,.18-.34.69.69,0,0,1,.77-.13H149l.08.08h0v.06l.22.25L160,476.51h0l.61.78h0a3.75,3.75,0,0,0,2.93,1.46h11.92a.67.67,0,0,0,.36-.17.92.92,0,0,0,.2-1.06Z"/><path class="cls-2" d="M320.8,439.55a3.7,3.7,0,0,0,.21-1.23.89.89,0,0,0,0-.23h0a1.88,1.88,0,0,0-1.73-1.49h-7a3.76,3.76,0,0,0-3.67,2.95h0l-.22.84-5.91,21.69a.88.88,0,0,1-.58.29.82.82,0,0,1-.66-.44l-.09-.34h0l-5.91-21.92h0l-.09-.4a3.78,3.78,0,0,0-3.59-2.61h-7.62a3.75,3.75,0,0,0-3.67,2.91h0v.2l-.16.66-5.38,21.62a.71.71,0,0,1-1,.26.65.65,0,0,1-.26-.26l-6.39-21.64-.3-1a.61.61,0,0,0,0-.19h0a3.78,3.78,0,0,0-3.57-2.54H255.5a1.89,1.89,0,0,0-1.74,1.49h0v.23a3.93,3.93,0,0,0,.22,1.23l12.7,36.71a2,2,0,0,0,.17.4,3.7,3.7,0,0,0,3.06,2.13h7.45a3.78,3.78,0,0,0,3.31-2.64h0l.31-1.06,5.86-21a.7.7,0,0,1,1.16,0l6.71,21.44a9.45,9.45,0,0,0,.46,1.19,3.7,3.7,0,0,0,3.06,2.13h7.26a3.64,3.64,0,0,0,3.05-2.13h0c.09-.16.34-.87.5-1.35L321,440a.51.51,0,0,1,.06-.22"/><path class="cls-2" d="M401.82,438.06h0a3,3,0,0,1-.1-.32,1.9,1.9,0,0,0-1.6-1.13h-7.45a3.77,3.77,0,0,0-3.29,2.19h0a2.79,2.79,0,0,0-.12.34l-.06.2c0,.1-.06.2-.08.3l-.23.72h0l-6.77,22.17h0l-.1.26a.86.86,0,0,1-.89.66.88.88,0,0,1-.86-.57l-8.07-22.53-.09-.29-.55-1.52a3.75,3.75,0,0,0-3.19-2H360a1.88,1.88,0,0,0-1.36,1.07,1,1,0,0,0-.1.29h0a2,2,0,0,0,.06,1l16,39.07a3.68,3.68,0,0,1-.14,2.47v.12l-.3.74c-.43,1.06-.84,2-1.22,2.87a7.81,7.81,0,0,1-1.43,2.13,5.64,5.64,0,0,1-2.18,1.3,10.34,10.34,0,0,1-3.36.46h-5.32a1.87,1.87,0,0,0-1.81,1.82v6.68a1.88,1.88,0,0,0,1.82,1.82h7.12a24.13,24.13,0,0,0,7.12-.86,11.51,11.51,0,0,0,4.47-2.54,13.87,13.87,0,0,0,2.91-4.13c.76-1.65,1.55-3.53,2.37-5.66l17.17-46.42a1.8,1.8,0,0,0,0-.73"/><path class="cls-2" d="M400.13,470.22a4.12,4.12,0,0,0-3.19,1.36,4.5,4.5,0,0,0,6.37,6.35l.1-.1a4.51,4.51,0,0,0,0-6.25,4.15,4.15,0,0,0-3.19-1.36"/><path class="cls-2" d="M476.62,441.34a19.33,19.33,0,0,0-6.56-4.2,23.83,23.83,0,0,0-16.56,0,18.91,18.91,0,0,0-10.8,10.58c-1.06,2.48-1.57,7.39-1.57,10.44a27.3,27.3,0,0,0,1.57,9.43,19,19,0,0,0,10.85,10.64,23.74,23.74,0,0,0,16.57,0,19.34,19.34,0,0,0,6.55-4.18,19.73,19.73,0,0,0,4.26-6.38,27.6,27.6,0,0,0,1.57-9.44c0-3-.53-8-1.57-10.44a19.73,19.73,0,0,0-4.26-6.38M474.58,465a13.21,13.21,0,0,1-2.78,4.56,13.41,13.41,0,0,1-4.35,3.06,15,15,0,0,1-11.34,0A13,13,0,0,1,449,465a23.26,23.26,0,0,1-1-6.83,30.38,30.38,0,0,1,1-7.83,12.93,12.93,0,0,1,7.12-7.62,14.85,14.85,0,0,1,11.34,0,13,13,0,0,1,7.13,7.62,31.31,31.31,0,0,1,.94,7.83,23.91,23.91,0,0,1-.94,6.83"/><path class="cls-2" d="M415.65,445.85a11.06,11.06,0,0,1,4.11-3.12,13.89,13.89,0,0,1,5.7-1.06,12.5,12.5,0,0,1,5.32,1.06,12.35,12.35,0,0,1,3.35,2.39,1.87,1.87,0,0,0,2.43.06l2.36-2.13a1.87,1.87,0,0,0,.19-2.55,17.42,17.42,0,0,0-5.47-3.39,22.41,22.41,0,0,0-8.17-1.51,21.08,21.08,0,0,0-8.15,1.54,18.86,18.86,0,0,0-6.38,4.26,19.15,19.15,0,0,0-4.1,6.46,34,34,0,0,0,0,19.63A19.3,19.3,0,0,0,410.9,474a17.66,17.66,0,0,0,6.33,4.26,22.73,22.73,0,0,0,16.24,0,16.35,16.35,0,0,0,5.41-3.46,1.87,1.87,0,0,0-.09-2.49l-2-1.94a1.89,1.89,0,0,0-2.55,0,11.54,11.54,0,0,1-8.74,3.47,12.78,12.78,0,0,1-5.38-1.11,12.19,12.19,0,0,1-4.1-3.12,14.88,14.88,0,0,1-2.65-4.6,27.21,27.21,0,0,1-.95-7.24,31.08,31.08,0,0,1,.83-7.25,13.89,13.89,0,0,1,2.41-4.62"/><path class="cls-2" d="M544.1,445.18a12.92,12.92,0,0,0-2.49-5.13,11.09,11.09,0,0,0-4.56-3.19,18.68,18.68,0,0,0-6.95-1.13,12.59,12.59,0,0,0-7.29,1.95,16.93,16.93,0,0,0-4.11,4.12h0l-.19.28h0l-.09.14a.63.63,0,0,1-.48.21.69.69,0,0,1-.6-.36c0-.07-.12-.19-.17-.31-.19-.31-.38-.63-.58-1a9.48,9.48,0,0,0-2.2-2.4,13.34,13.34,0,0,0-3.52-1.91,17.23,17.23,0,0,0-9.73-.16,14.79,14.79,0,0,0-3.72,1.66,13,13,0,0,0-2.87,2.36,10.9,10.9,0,0,0-.75.93l-.08.09a.27.27,0,0,1-.09.12h0a.68.68,0,0,1-.48.21.66.66,0,0,1-.65-.54v-2.69a1.85,1.85,0,0,0-1.81-1.79h-2.33a1.86,1.86,0,0,0-1.8,1.85v38.4a1.88,1.88,0,0,0,1.82,1.84h2.8a1.88,1.88,0,0,0,1.83-1.88V456.55a24.65,24.65,0,0,1,.7-6.05,14,14,0,0,1,2.13-4.72,9.69,9.69,0,0,1,3.72-3.06,12.73,12.73,0,0,1,5.44-1.06c2.65,0,4.56.89,5.71,2.69s1.74,4.84,1.74,9.15v23.4a1.88,1.88,0,0,0,1.83,1.86h2.81a1.89,1.89,0,0,0,1.83-1.88V453.09a13.06,13.06,0,0,1,.78-4.67,10.76,10.76,0,0,1,2.13-3.6A9.6,9.6,0,0,1,525,442.5a9.18,9.18,0,0,1,3.9-.83,10.26,10.26,0,0,1,4.63.91,7.82,7.82,0,0,1,2.9,2.39,9.08,9.08,0,0,1,1.5,3.41,18.79,18.79,0,0,1,.4,3.88v24.68a1.88,1.88,0,0,0,1.83,1.83H543a1.88,1.88,0,0,0,1.83-1.88v-25a28.38,28.38,0,0,0-.73-6.75"/></g></g></svg>