<svg id="Layer_1" data-name="Layer 1" xmlns="http://www.w3.org/2000/svg" viewBox="0 0 2120.93 356.93"><defs><style>.cls-1{fill:#fff;}</style></defs><g id="TakeawayCOM_Full_Colour" data-name="TakeawayCOM Full Colour"><g id="TakeawayCOM-2"><path class="cls-1" d="M1175,162.1V146.41a3.76,3.76,0,0,0-3.61-3.5h-85a3.73,3.73,0,0,0-3.63,3.63V162a3.78,3.78,0,0,0,3.59,3.66h27.81a1.91,1.91,0,0,1,1.84,1.86v88.29a3.74,3.74,0,0,0,3.57,3.74h18.57a3.72,3.72,0,0,0,3.55-3.59V167.06a1.91,1.91,0,0,1,1.78-1.43h27.94a3.77,3.77,0,0,0,3.57-3.53"/><path class="cls-1" d="M1222.35,183.43a25.74,25.74,0,0,0-11.21-8,49.81,49.81,0,0,0-17.87-2.72,57.63,57.63,0,0,0-19.12,3.21,45.18,45.18,0,0,0-13.41,7.34,3.75,3.75,0,0,0,.12,5.19h0l7.71,7.9h0a3.76,3.76,0,0,0,5.32,0h0a30,30,0,0,1,6.25-4.28,24.51,24.51,0,0,1,11.12-2.55,17.16,17.16,0,0,1,11.13,3.88c2.91,2.41,4.47,6.71,4.68,13.62a1.92,1.92,0,0,1-1.86,1.61h0c-2.89,0-6,0-9.24.17a107.75,107.75,0,0,0-12,1,74.1,74.1,0,0,0-11.6,2.55,34.44,34.44,0,0,0-10,4.86,22.93,22.93,0,0,0-6.93,7.91,24.69,24.69,0,0,0-2.55,11.7,23.28,23.28,0,0,0,2.31,10.7,22.58,22.58,0,0,0,6.25,7.74,27.14,27.14,0,0,0,9.16,4.71,36.88,36.88,0,0,0,10.69,1.56,37.3,37.3,0,0,0,14.42-2.8,23,23,0,0,0,9.1-6.7h.25a1.37,1.37,0,0,1,1.54.26,1.33,1.33,0,0,1,.41.92v2.89a3.73,3.73,0,0,0,3.57,3.61h15.58a3.72,3.72,0,0,0,3.57-3.65V219a138.75,138.75,0,0,0-1.65-22.48,30.78,30.78,0,0,0-5.84-12.84m-15.12,46a13.41,13.41,0,0,1-1.57,6.59,13.69,13.69,0,0,1-4.27,4.62,21.54,21.54,0,0,1-6,2.78,24,24,0,0,1-7,1,15.81,15.81,0,0,1-7.94-2.14,7,7,0,0,1-3.76-6.59,8,8,0,0,1,2.71-6.42,18.16,18.16,0,0,1,6.59-3.47,36.18,36.18,0,0,1,8.07-1.39q4.27-.25,7-.25h4.28a1.92,1.92,0,0,1,1.78,1.86Z"/><path class="cls-1" d="M1468.37,183.43a25.63,25.63,0,0,0-11.19-8,49.9,49.9,0,0,0-17.88-2.72,57.94,57.94,0,0,0-19.13,3.21,44.64,44.64,0,0,0-13.39,7.34,3.73,3.73,0,0,0,.11,5.19h0l7.7,7.9h0a3.8,3.8,0,0,0,5.35,0,29.91,29.91,0,0,1,6.24-4.28,24.47,24.47,0,0,1,11.15-2.55,17,17,0,0,1,11.1,3.88c2.91,2.41,4.47,6.71,4.69,13.62a1.92,1.92,0,0,1-1.86,1.61h0c-2.89,0-6,0-9.25.17a107.59,107.59,0,0,0-12,1,72.37,72.37,0,0,0-11.62,2.55,34.44,34.44,0,0,0-10,4.86,23.07,23.07,0,0,0-6.91,7.91,24.46,24.46,0,0,0-2.56,11.7,23.57,23.57,0,0,0,2.31,10.7,22.56,22.56,0,0,0,6.24,7.74,27.23,27.23,0,0,0,9.16,4.71,38.25,38.25,0,0,0,25.2-1.24,22.87,22.87,0,0,0,9.09-6.7h.24a1.41,1.41,0,0,1,1.56.26,1.44,1.44,0,0,1,.39.92v2.89a3.73,3.73,0,0,0,3.57,3.61h15.57a3.72,3.72,0,0,0,3.58-3.65V219a141,141,0,0,0-1.63-22.48,30.81,30.81,0,0,0-5.86-12.84m-15.21,46a13.29,13.29,0,0,1-1.56,6.59,13.44,13.44,0,0,1-4.28,4.62,21.61,21.61,0,0,1-6,2.78,24,24,0,0,1-7,1,15.77,15.77,0,0,1-7.92-2.14,7,7,0,0,1-3.78-6.59,7.94,7.94,0,0,1,2.72-6.42,18.12,18.12,0,0,1,6.58-3.47,36.45,36.45,0,0,1,8.09-1.39c2.85-.17,5.19-.25,7-.25h4.28a1.89,1.89,0,0,1,1.77,1.86Z"/><path class="cls-1" d="M1680.7,183.43a25.74,25.74,0,0,0-11.21-8,49.81,49.81,0,0,0-17.87-2.72,57.77,57.77,0,0,0-19.1,3.21,45,45,0,0,0-13.44,7.34,3.76,3.76,0,0,0,.13,5.19h0l7.7,7.9h0a3.8,3.8,0,0,0,5.35,0,30.1,30.1,0,0,1,6.27-4.28,24.39,24.39,0,0,1,11.13-2.55,17.08,17.08,0,0,1,11.1,3.88c2.91,2.41,4.45,6.71,4.68,13.62a1.89,1.89,0,0,1-1.88,1.61h0c-2.87,0-6,0-9.22.17a107.4,107.4,0,0,0-12,1,74.34,74.34,0,0,0-11.62,2.55,34.44,34.44,0,0,0-10,4.86,22.77,22.77,0,0,0-6.91,7.91,24.46,24.46,0,0,0-2.56,11.7,23.44,23.44,0,0,0,2.31,10.7,22.09,22.09,0,0,0,6.26,7.74A27,27,0,0,0,1629,260a38.31,38.31,0,0,0,25.22-1.24,22.54,22.54,0,0,0,9.09-6.7h.24a1.38,1.38,0,0,1,1.54.26,1.3,1.3,0,0,1,.38.92v2.89a3.79,3.79,0,0,0,3.6,3.61h15.55a3.76,3.76,0,0,0,3.62-3.65V219a138.77,138.77,0,0,0-1.67-22.48,30.9,30.9,0,0,0-5.84-12.84m-15.24,46a13.17,13.17,0,0,1-1.54,6.59,13.69,13.69,0,0,1-4.27,4.62,21.54,21.54,0,0,1-6,2.78,24,24,0,0,1-7,1,15.74,15.74,0,0,1-7.92-2.14,7,7,0,0,1-3.78-6.59,8,8,0,0,1,2.71-6.42,18.16,18.16,0,0,1,6.59-3.47,36.45,36.45,0,0,1,8.09-1.39c2.78-.17,5.13-.25,7-.25h4.28a1.88,1.88,0,0,1,1.76,1.86Z"/><path class="cls-1" d="M1387.48,184.17a32.79,32.79,0,0,0-11.85-8.55,40,40,0,0,0-15.55-3,51.08,51.08,0,0,0-17.4,3,42.41,42.41,0,0,0-14.16,8.55,40.2,40.2,0,0,0-9.48,13.27,57.62,57.62,0,0,0,0,39.36,39.5,39.5,0,0,0,9.48,13.24,41.35,41.35,0,0,0,14.16,8.56,50.1,50.1,0,0,0,17.4,3,45,45,0,0,0,18.78-4.12,39.41,39.41,0,0,0,12.3-8.56,3.76,3.76,0,0,0,0-5.07L1380,235.58h0l-.81-.58a3.78,3.78,0,0,0-4.52.6,28.36,28.36,0,0,1-5.32,4.58,18.73,18.73,0,0,1-10.29,2.7,18.3,18.3,0,0,1-12.22-4.28,22.33,22.33,0,0,1-6.31-14.23,1.85,1.85,0,0,1,1.54-1.82h52.14a3.77,3.77,0,0,0,3.55-3.74v-4.09a52.93,52.93,0,0,0-2.63-17.3,38.66,38.66,0,0,0-7.51-13.27m-16.5,21.4h-28.71a1.89,1.89,0,0,1-1.86-1.78,16.1,16.1,0,0,1,1.2-3.91,14.43,14.43,0,0,1,3.47-4.75,17.75,17.75,0,0,1,5.34-3.41,18.78,18.78,0,0,1,7.26-1.3,14.56,14.56,0,0,1,11,4.45,14.21,14.21,0,0,1,4.09,8.92,1.91,1.91,0,0,1-1.88,1.78"/><path class="cls-1" d="M1292.69,218.3h0l-.56-.77a3.71,3.71,0,0,1,0-3.83L1321,177.76a1.81,1.81,0,0,0-1.39-3h-22.7a7.53,7.53,0,0,0-6,2.95h0l-1.24,1.58-22.17,28.5-.29.34h0l-.18.17h-.15a1.36,1.36,0,0,1-1.54-.25,1.48,1.48,0,0,1-.36-.69V138.52a3.77,3.77,0,0,0-3.49-3.55H1243.7a3.79,3.79,0,0,0-3.49,3.62V255.93a3.76,3.76,0,0,0,3.57,3.59h17.57a3.74,3.74,0,0,0,3.57-3.53V222.77a1.4,1.4,0,0,1,.36-.69,1.36,1.36,0,0,1,1.54-.25h.15a.37.37,0,0,1,.18.17h0v.1l.44.52L1289.14,255h0l1.24,1.58h0a7.57,7.57,0,0,0,5.88,2.93h24a1.35,1.35,0,0,0,.71-.34,1.85,1.85,0,0,0,.41-2.14Z"/><path class="cls-1" d="M1612.52,180.67a7.29,7.29,0,0,0,.43-2.49,3.38,3.38,0,0,0,0-.45h0a3.77,3.77,0,0,0-3.49-3h-14.1a7.54,7.54,0,0,0-7.38,5.93h0l-.45,1.69L1575.64,226a1.72,1.72,0,0,1-1.16.57,1.64,1.64,0,0,1-1.33-.87L1573,225h0l-11.87-44.09h0l-.19-.79a7.58,7.58,0,0,0-7.21-5.26h-15.32a7.54,7.54,0,0,0-7.38,5.86h0v.4l-.32,1.33-10.83,43.47a1.44,1.44,0,0,1-2,.53,1.55,1.55,0,0,1-.52-.53l-12.84-43.51-.62-2a1.27,1.27,0,0,0,0-.39h0a7.58,7.58,0,0,0-7.16-5.11h-15.53a3.78,3.78,0,0,0-3.49,3h0a3.68,3.68,0,0,0,0,.47,7.54,7.54,0,0,0,.43,2.49l25.54,73.8a4.56,4.56,0,0,0,.34.82,7.45,7.45,0,0,0,6.16,4.27h15a7.57,7.57,0,0,0,6.65-5.3h0l.62-2.14L1544.23,210a1.54,1.54,0,0,1,1.16-.62,1.61,1.61,0,0,1,1.17.64l13.5,43.13a18.15,18.15,0,0,0,.92,2.39,7.46,7.46,0,0,0,6.16,4.28h14.59a7.37,7.37,0,0,0,6.14-4.28h0c.17-.32.69-1.75,1-2.71l24-71.37a1,1,0,0,1,.13-.45"/><path class="cls-1" d="M1775.45,177.67h0a4.71,4.71,0,0,1-.19-.64,3.87,3.87,0,0,0-3.23-2.27h-15a7.55,7.55,0,0,0-6.61,4.41h0c-.1.22-.18.45-.26.68l-.1.39a6.32,6.32,0,0,0-.18.62l-.44,1.43h0l-13.63,44.58h0l-.19.54a1.77,1.77,0,0,1-1.8,1.33,1.79,1.79,0,0,1-1.73-1.16l-16.22-45.31-.19-.58-1.09-3.06a7.55,7.55,0,0,0-6.42-3.91h-16.92a3.79,3.79,0,0,0-2.74,2.14,3,3,0,0,0-.2.6h0a4.11,4.11,0,0,0,.13,1.94L1720.7,258a7.36,7.36,0,0,1-.28,5v.24l-.59,1.48c-.86,2.13-1.69,4.1-2.46,5.77a15.31,15.31,0,0,1-2.87,4.28,11.26,11.26,0,0,1-4.39,2.63,21.19,21.19,0,0,1-6.76.92h-10.69a3.74,3.74,0,0,0-3.64,3.66v13.43a3.76,3.76,0,0,0,3.66,3.66H1707a48.46,48.46,0,0,0,14.33-1.73,23,23,0,0,0,9-5.11,27.73,27.73,0,0,0,5.84-8.3q2.31-5,4.77-11.38l34.53-93.34a3.69,3.69,0,0,0,0-1.48"/><path class="cls-1" d="M1772.05,242.34a8.32,8.32,0,0,0-6.42,2.74,9,9,0,0,0,12.82,12.76l.21-.2a9.09,9.09,0,0,0,0-12.56,8.4,8.4,0,0,0-6.42-2.74"/><path class="cls-1" d="M1925.86,184.26a38.71,38.71,0,0,0-13.17-8.43,47.84,47.84,0,0,0-33.31,0,38.42,38.42,0,0,0-13.16,8.43,38.91,38.91,0,0,0-8.56,12.84c-2.14,5-3.16,14.86-3.16,21a54.78,54.78,0,0,0,3.16,19,38.18,38.18,0,0,0,21.82,21.39,47.84,47.84,0,0,0,33.31,0A38.79,38.79,0,0,0,1926,250a39.39,39.39,0,0,0,8.56-12.83,55.26,55.26,0,0,0,3.16-19c0-6.12-1.07-16-3.16-21a39.43,39.43,0,0,0-8.56-12.84m-4.21,47.43a26.3,26.3,0,0,1-5.59,9.18,27,27,0,0,1-8.75,6.16,30.38,30.38,0,0,1-22.8,0,27.56,27.56,0,0,1-8.75-6.16,26.86,26.86,0,0,1-5.56-9.18,46.67,46.67,0,0,1-2-13.74,61,61,0,0,1,2-15.74A26,26,0,0,1,1884.62,187a29.82,29.82,0,0,1,22.8,0,26.52,26.52,0,0,1,8.75,6.14,26.21,26.21,0,0,1,5.59,9.18,62.34,62.34,0,0,1,1.9,15.74,47.64,47.64,0,0,1-1.9,13.74"/><path class="cls-1" d="M1803.26,193.33a22.35,22.35,0,0,1,8.26-6.27,28,28,0,0,1,11.46-2.14,25.41,25.41,0,0,1,10.7,2.14,24.72,24.72,0,0,1,6.74,4.82,3.79,3.79,0,0,0,4.9.1l4.73-4.28a3.75,3.75,0,0,0,.38-5.13,35,35,0,0,0-11-6.8,44.86,44.86,0,0,0-16.43-3,42.19,42.19,0,0,0-16.39,3.1,37.81,37.81,0,0,0-12.84,8.56,38.48,38.48,0,0,0-8.23,13,68.37,68.37,0,0,0,0,39.47,38.7,38.7,0,0,0,8.17,13,35.42,35.42,0,0,0,12.73,8.56,45.68,45.68,0,0,0,32.64,0,32.93,32.93,0,0,0,10.89-7,3.74,3.74,0,0,0-.19-5l-4-3.92a3.8,3.8,0,0,0-5.12,0,23.22,23.22,0,0,1-17.58,7,25.75,25.75,0,0,1-10.83-2.25A24.29,24.29,0,0,1,1804,241a30.09,30.09,0,0,1-5.33-9.25,53.41,53.41,0,0,1-1.9-14.56,61.57,61.57,0,0,1,1.66-14.57,27.88,27.88,0,0,1,4.84-9.31"/><path class="cls-1" d="M2061.56,192a26,26,0,0,0-5-10.31,22.27,22.27,0,0,0-9.15-6.42,37.69,37.69,0,0,0-14-2.26,25.39,25.39,0,0,0-14.66,3.91,34.05,34.05,0,0,0-8.25,8.3h0l-.39.56h0l-.19.28a1.27,1.27,0,0,1-1,.42,1.35,1.35,0,0,1-1.2-.72c0-.15-.24-.39-.35-.62-.38-.63-.77-1.27-1.17-2a19,19,0,0,0-4.41-4.84,26.53,26.53,0,0,0-7.08-3.83,34.49,34.49,0,0,0-19.57-.32,29.43,29.43,0,0,0-7.49,3.34,25.69,25.69,0,0,0-5.76,4.73c-.55.62-1,1.24-1.52,1.88l-.15.17a.7.7,0,0,1-.19.26h0a1.34,1.34,0,0,1-2.27-.67v-5.41a3.73,3.73,0,0,0-3.63-3.61h-4.69a3.74,3.74,0,0,0-3.61,3.72V255.8a3.76,3.76,0,0,0,3.65,3.7h5.63a3.81,3.81,0,0,0,3.68-3.79V214.85a49.38,49.38,0,0,1,1.41-12.17,27.84,27.84,0,0,1,4.28-9.48A19.49,19.49,0,0,1,1972,187a25.5,25.5,0,0,1,10.93-2.14q8,0,11.49,5.41t3.49,18.4v47.07a3.78,3.78,0,0,0,3.68,3.74h5.64a3.81,3.81,0,0,0,3.68-3.79V207.9a26.16,26.16,0,0,1,1.59-9.39,21.67,21.67,0,0,1,4.27-7.25,19.61,19.61,0,0,1,6.42-4.67,18.71,18.71,0,0,1,7.83-1.67,20.66,20.66,0,0,1,9.33,1.84,15.72,15.72,0,0,1,5.82,4.82,18.53,18.53,0,0,1,3,6.84,38,38,0,0,1,.81,7.81v49.63a3.78,3.78,0,0,0,3.68,3.68h5.62a3.78,3.78,0,0,0,3.68-3.78V205.57a56.49,56.49,0,0,0-1.47-13.59"/></g></g><path class="cls-1" d="M387.56,143H355.83c-10.29,0-10.29,0-12.43,12s-2.15,12.44,7.29,12.44h18.86l-10.72,61.31c-2.57,13.72-8.57,23.15-27,28.73-4.72,1.28-6,3-6,5.14,0,2.58.85,4.72,3,9.86,3,7.29,4.72,8.58,7.29,8.58s7.29-1.29,9-1.71c26.16-8.58,36.88-28.73,41.16-52.74l12-69C400.42,143,400.42,143,387.56,143"/><path class="cls-1" d="M495.18,143c-12.86,0-12.86,0-14.58,10.71l-9.43,55.75c-2.57,16.29-6.86,25.72-22.72,25.72-15.44,0-21-9.43-18.44-24L439,158c2.58-15,2.15-15-11.14-15-12.87,0-13.3,0-15,10.29L403.43,209c-5.58,31.73,14.14,51.45,42,51.45,31.3,0,47.16-14.15,52.31-47.59l9.43-55.32c2.14-14.57,1.28-14.57-12-14.57"/><path class="cls-1" d="M553.92,234.31c10.3-.42,15.87-5.14,15.87-9.86,0-6-7.29-8.14-17.15-11.15-19.3-6-36.88-12.86-36.88-33.44,0-24.44,20.16-37.73,45.45-37.73,10.72,0,22.73.43,30.45,1.28,6.86.86,8.57,3,6.43,13.72s-4.72,11.58-10.72,11.15c-7.29-.43-16.72-1.28-27.87-1.28-12.86,0-16.72,4.71-16.72,9,0,5.57,5.14,8.58,17.15,12,22.29,6.43,36.87,15.43,36.87,34.73,0,22.72-16.72,36-43.73,36.87a213.57,213.57,0,0,1-38.59-2.14c-8.58-1.29-9-1.29-6.86-13.72,2.14-11.15,2.14-12,10.29-11.15,15.86,1.71,25.72,2.14,36,1.71"/><path class="cls-1" d="M694.13,143H621.67c-10.29,0-10.29,0-12.43,12.43s-1.72,12.43,7.29,12.43h23.58L626.82,244.6c-2.58,15-2.15,15,11.14,15,12.44,0,12.87,0,14.58-10.72l13.72-81H689c10.29,0,10.29,0,12.43-12.43S703.57,143,694.13,143"/><path class="cls-1" d="M821.91,167.43c10.29,0,10.29,0,12.43-12.44s2.15-12.43-7.29-12.43H775.17c-18.44,0-18,0-21,18.43L740.87,238.6c-3.43,20.15-3,20.15,15.44,20.15H806.9c10.72,0,10.29,0,12.44-12,2.14-12.44,2.14-12.44-7.29-12.44H768.31L771.74,212h36.45c9.86,0,9.86,0,11.57-11.58,1.72-12,1.72-12-11.57-12H776l3.43-21Z"/><path class="cls-1" d="M876.79,208.59l16.72-36.88c1.29-3,1.29-3,3.43-3s2.15,0,2.58,3.43l5.14,36.45Zm45.45-51.46c-2.57-14.57-2.57-14.57-23.15-14.57-19.3,0-18.87,0-24.87,12L830.91,245c-6.43,12.87-5.14,14.15,10.72,14.15,12.44,0,12.44,0,17.58-11.57l6.86-15.44h42l2.15,15.44c1.71,11.57,2.14,11.57,14.57,11.57,14.15,0,15.44-.85,12.87-15Z"/><path class="cls-1" d="M1024.72,143H951.83c-10.29,0-10.29,0-12.44,12.43s-1.71,12.43,7.29,12.43h23.58L957,244.6c-2.57,15-2.14,15,11.15,15,12.43,0,12.86,0,14.58-10.72l13.72-81h22.72c10.29,0,10.29,0,12.44-12.43,2.57-12.43,2.57-12.43-6.86-12.43"/><path class="cls-1" d="M282.81,170.23h0c-.71-1.85-10.54-20-28.78-42.77h0a3.66,3.66,0,0,1-.84-1.94h0A360.39,360.39,0,0,0,247.69,86a6.43,6.43,0,0,0-5.57-5h0l-19-2.29h0a2.81,2.81,0,0,0-.5,0,4,4,0,0,0-4,4v6.58a.24.24,0,0,1-.24.24.23.23,0,0,1-.16-.06h0A266.59,266.59,0,0,0,180,60.55h0a16.8,16.8,0,0,0-9.39-2.84h0a16.8,16.8,0,0,0-9.39,2.84h0C95.76,101,59.74,166.63,58.35,170.23h0a6.48,6.48,0,0,0,4.27,9.05l18.85,3.63a6.46,6.46,0,0,1,4.71,5.51c.15,3.33,3.72,77.66,8.19,96.94h0a6.5,6.5,0,0,0,6.28,4.83h.14c11-.28,21.07-.46,32-.61h.9a2.13,2.13,0,0,0,2.11-2.12v-.05h0c-.45-6.49-1.4-21.33-2.17-37,0-.39-.05-.88-.07-1.28h0A4,4,0,0,0,131.6,246a20.33,20.33,0,0,1-9.89-16.42c-1-26.06-1.49-56.19-.07-79.76h0a3.79,3.79,0,0,1,7.58.15v.3h0c-.93,15.71-1,34.29-.68,52.62h0a4.49,4.49,0,1,0,9-.16h0c-.34-18.45-.24-37.15.71-52.91a3.79,3.79,0,0,1,7.58.15c0,.1,0,.2,0,.3-.92,15.63-1,34.1-.68,52.33h0a4.49,4.49,0,0,0,9-.14h0c-.34-18.37-.24-37,.71-52.65a3.79,3.79,0,0,1,7.58.15c0,.1,0,.2,0,.3-1.35,22.92-.91,51.92,0,77.37,0,0,0,.22,0,.24s0,.26,0,.39h0v.25a20.32,20.32,0,0,1-8.82,16.77,3.92,3.92,0,0,0-1.68,2.95s-.46,3.91,1.26,22.84c.81,8.27,1.42,14,1.71,16.59h0a2,2,0,0,0,2,1.74h1.75c3.63,0,7.38,0,11.27,0h1.46l14.12,0,10.69.09h0a2,2,0,0,0,2-1.76h0c2.48-22.69,3.06-35.44,3.06-35.44a2.25,2.25,0,0,0-2-2.18l-13-1.79h0a4.43,4.43,0,0,1-3.72-3.18,6.13,6.13,0,0,1-.16-2C187.57,167.47,212.5,142,212.5,142a8,8,0,0,1,1.21-1,4,4,0,0,1,6.07,1.78,7.88,7.88,0,0,1,.32,1.82c2.15,23.77,1.1,64.23-.23,95.79-1.13,26.79-2.5,47.82-2.5,47.82h0v0a1.56,1.56,0,0,0,1.56,1.56h0c7.08.12,14,.26,21.44.45h.14a6.5,6.5,0,0,0,6.28-4.83h0c4.47-19.28,8-93.61,8.19-96.94a6.44,6.44,0,0,1,4.71-5.51l18.85-3.63a6.48,6.48,0,0,0,4.27-9.05Z"/></svg>